<svg width="338" height="81" viewBox="0 0 338 81" fill="none" xmlns="http://www.w3.org/2000/svg">
<path d="M317.898 57.9495C310.314 57.9495 306.522 54.2055 306.522 46.7175C306.522 39.2295 310.314 35.4855 317.898 35.4855H326.986C328.091 35.4855 328.986 34.5901 328.986 33.4855V30.8055C328.986 28.5975 327.882 27.4935 325.674 27.4935H312.41C311.306 27.4935 310.41 26.5981 310.41 25.4935V23.9575C310.41 23.328 310.707 22.7352 311.21 22.3575L313.621 20.5495C313.967 20.2899 314.388 20.1495 314.821 20.1495H326.106C333.642 20.1495 337.41 23.9415 337.41 31.5255V55.9495C337.41 57.0541 336.515 57.9495 335.41 57.9495H317.898ZM314.946 47.2935C314.946 49.5015 316.05 50.6055 318.258 50.6055H326.986C328.091 50.6055 328.986 49.7101 328.986 48.6055V44.0375C328.986 42.9329 328.091 42.0375 326.986 42.0375H318.258C316.05 42.0375 314.946 43.1175 314.946 45.2775V47.2935Z" fill="#3A0069" style="fill:#3A0069;fill:color(display-p3 0.2255 0.0000 0.4100);fill-opacity:1;"></path>
<path d="M287.008 57.9495C285.903 57.9495 285.008 57.0541 285.008 55.9495V25.3464C285.008 25.0074 285.09 24.671 285.271 24.3847C287.062 21.5612 290.286 20.1495 294.944 20.1495H301.847C302.274 20.1495 302.689 20.2859 303.032 20.5386L305.505 22.3581C306.017 22.735 306.32 23.333 306.32 23.9689V25.4935C306.32 26.5981 305.424 27.4935 304.32 27.4935H296.888C295.621 27.4935 294.644 27.7391 293.956 28.2304C293.578 28.4999 293.432 28.9712 293.432 29.435V55.9495C293.432 57.0541 292.536 57.9495 291.432 57.9495H287.008Z" fill="#3A0069" style="fill:#3A0069;fill:color(display-p3 0.2255 0.0000 0.4100);fill-opacity:1;"></path>
<path d="M246.641 46.5735V31.5255C246.641 23.9415 250.433 20.1495 258.017 20.1495H268.097C275.633 20.1495 279.401 23.9415 279.401 31.5255V46.5735C279.401 54.1575 275.633 57.9495 268.097 57.9495H258.017C250.433 57.9495 246.641 54.1575 246.641 46.5735ZM255.065 47.2935C255.065 49.5015 256.169 50.6055 258.377 50.6055H267.665C269.873 50.6055 270.977 49.5015 270.977 47.2935V30.8055C270.977 28.5975 269.873 27.4935 267.665 27.4935H258.377C256.169 27.4935 255.065 28.5975 255.065 30.8055V47.2935Z" fill="#3A0069" style="fill:#3A0069;fill:color(display-p3 0.2255 0.0000 0.4100);fill-opacity:1;"></path>
<path d="M208.703 46.5735V31.5255C208.703 23.9415 212.495 20.1495 220.079 20.1495H230.319C231.424 20.1495 232.319 19.2541 232.319 18.1495V5.66949C232.319 4.56492 233.215 3.66949 234.319 3.66949H238.743C239.848 3.66949 240.743 4.56493 240.743 5.66949V55.9495C240.743 57.0541 239.848 57.9495 238.743 57.9495H220.079C212.495 57.9495 208.703 54.1575 208.703 46.5735ZM217.127 47.2935C217.127 49.5015 218.231 50.6055 220.439 50.6055H230.319C231.424 50.6055 232.319 49.7101 232.319 48.6055V29.4935C232.319 28.3889 231.424 27.4935 230.319 27.4935H220.439C218.231 27.4935 217.127 28.5975 217.127 30.8055V47.2935Z" fill="#3A0069" style="fill:#3A0069;fill:color(display-p3 0.2255 0.0000 0.4100);fill-opacity:1;"></path>
<path d="M173.06 57.9495C171.956 57.9495 171.06 57.0541 171.06 55.9495V22.1495C171.06 21.0449 171.956 20.1495 173.06 20.1495H191.796C199.332 20.1495 203.1 23.9415 203.1 31.5255V55.9495C203.1 57.0541 202.205 57.9495 201.1 57.9495H196.676C195.572 57.9495 194.676 57.0541 194.676 55.9495V30.8055C194.676 28.5975 193.572 27.4935 191.364 27.4935H181.484C180.38 27.4935 179.484 28.3889 179.484 29.4935V55.9495C179.484 57.0541 178.589 57.9495 177.484 57.9495H173.06Z" fill="#3A0069" style="fill:#3A0069;fill:color(display-p3 0.2255 0.0000 0.4100);fill-opacity:1;"></path>
<path d="M145.365 57.9495C137.781 57.9495 133.989 54.2055 133.989 46.7175C133.989 39.2295 137.781 35.4855 145.365 35.4855H154.453C155.558 35.4855 156.453 34.5901 156.453 33.4855V30.8055C156.453 28.5975 155.349 27.4935 153.141 27.4935H139.877C138.773 27.4935 137.877 26.5981 137.877 25.4935V23.9575C137.877 23.328 138.174 22.7352 138.677 22.3575L141.088 20.5495C141.434 20.2899 141.855 20.1495 142.288 20.1495H153.573C161.109 20.1495 164.877 23.9415 164.877 31.5255V55.9495C164.877 57.0541 163.982 57.9495 162.877 57.9495H145.365ZM142.413 47.2935C142.413 49.5015 143.517 50.6055 145.725 50.6055H154.453C155.558 50.6055 156.453 49.7101 156.453 48.6055V44.0375C156.453 42.9329 155.558 42.0375 154.453 42.0375H145.725C143.517 42.0375 142.413 43.1175 142.413 45.2775V47.2935Z" fill="#3A0069" style="fill:#3A0069;fill:color(display-p3 0.2255 0.0000 0.4100);fill-opacity:1;"></path>
<path d="M100.067 73.9495C98.9628 73.9495 98.0674 73.0541 98.0674 71.9495L98.0674 22.1495C98.0674 21.0449 98.9628 20.1495 100.067 20.1495H118.803C126.339 20.1495 130.107 23.9415 130.107 31.5255V46.5735C130.107 54.1575 126.339 57.9495 118.803 57.9495H108.491C107.387 57.9495 106.491 58.8449 106.491 59.9495V71.9495C106.491 73.0541 105.596 73.9495 104.491 73.9495H100.067ZM106.491 48.6055C106.491 49.7101 107.387 50.6055 108.491 50.6055H118.371C120.579 50.6055 121.683 49.5015 121.683 47.2935V30.8055C121.683 28.5975 120.579 27.4935 118.371 27.4935H108.491C107.387 27.4935 106.491 28.3889 106.491 29.4935V48.6055Z" fill="#3A0069" style="fill:#3A0069;fill:color(display-p3 0.2255 0.0000 0.4100);fill-opacity:1;"></path>
<path d="M16.1739 10.8317L0.496816 19.9599C0.18921 20.139 -2.27011e-08 20.4682 -2.30959e-08 20.8241L-4.33255e-08 39.0638C-5.80413e-08 52.3321 7.10461 64.5846 18.6201 71.1758L34.2801 80.1391C34.5876 80.3151 34.9653 80.3153 35.273 80.1395L50.9672 71.1713C62.4955 64.5837 69.61 52.324 69.61 39.0463L69.61 20.2492L53.3867 10.8184C41.8825 4.13086 27.6733 4.13592 16.1739 10.8317Z" fill="#7A1CB5" style="fill:#7A1CB5;fill:color(display-p3 0.4792 0.1092 0.7092);fill-opacity:1;"></path>
<path fill-rule="evenodd" clip-rule="evenodd" d="M42.1177 22.5173C37.5869 19.8836 31.9908 19.8856 27.462 22.5226L18.5322 27.7221L34.7883 37.0803L51.0711 27.7221L42.1177 22.5173ZM53.8118 32.4801L37.5326 41.8361L37.5326 60.6119L46.4696 55.505C51.0098 52.9105 53.8118 48.0823 53.8118 42.8531L53.8118 32.4801ZM32.0418 60.608L32.0418 41.8348L15.7983 32.4839L15.7983 42.8613C15.7983 48.0868 18.5963 52.9122 23.1315 55.508L32.0418 60.608ZM24.6991 17.7775C30.9345 14.1469 38.6392 14.1441 44.8772 17.7703L59.3026 26.156L59.3026 42.8531C59.3026 50.0527 55.4449 56.7003 49.1939 60.2723L34.7861 68.5054L20.4039 60.2735C14.1598 56.6995 10.3074 50.0558 10.3074 42.8613L10.3074 26.1573L24.6991 17.7775Z" fill="white" style="fill:white;fill-opacity:1;"></path>
</svg>