<svg width="149" height="149" viewBox="0 0 149 149" fill="none" xmlns="http://www.w3.org/2000/svg">
<path d="M55.5601 10.8317L10.3203 37.1734C10.0127 37.3525 9.82349 37.6816 9.82349 38.0375L9.82349 90.5091C9.82349 103.777 16.9281 116.03 28.4435 122.621L73.6663 148.505C73.9739 148.681 74.3516 148.681 74.6592 148.506L119.965 122.617C131.493 116.029 138.608 103.769 138.608 90.4916L138.608 37.4626L92.7729 10.8184C81.2688 4.13086 67.0595 4.13593 55.5601 10.8317Z" fill="#7A1CB5" style="fill:#7A1CB5;fill:color(display-p3 0.4792 0.1092 0.7092);fill-opacity:1;"></path>
<path fill-rule="evenodd" clip-rule="evenodd" d="M87.7445 41.6589C79.3623 36.7862 69.0091 36.7899 60.6304 41.6685L44.1095 51.2881L74.1846 68.6014L104.309 51.2881L87.7445 41.6589ZM109.38 60.0907L79.2618 77.4001L79.2618 112.137L95.796 102.689C104.196 97.8887 109.38 88.956 109.38 79.2816L109.38 60.0907ZM69.1033 112.13L69.1033 77.3977L39.0516 60.0979L39.0516 79.2967C39.0516 88.9643 44.2281 97.8918 52.6185 102.694L69.1033 112.13ZM55.5188 32.8898C67.0547 26.1728 81.3091 26.1677 92.8498 32.8765L119.538 48.3907L119.538 79.2816C119.538 92.6014 112.401 104.9 100.836 111.509L74.1805 126.74L47.5723 111.511C36.0202 104.899 28.8931 92.6072 28.8931 79.2967L28.8931 48.3931L55.5188 32.8898Z" fill="white" style="fill:white;fill-opacity:1;"></path>
</svg>